<svg width="120" height="120" viewBox="0 0 120 120" fill="none" xmlns="http://www.w3.org/2000/svg">
<rect width="120" height="120" rx="16" fill="#47936F"/>
<rect x="45.5312" y="60" width="10.2085" height="35" fill="#F4EEE0"/>
<rect x="63.7598" y="60" width="10.2085" height="35" fill="#F4EEE0"/>
<path d="M35 60H19V66H22V95H14V101H37V95H32V66H35V60Z" fill="#F4EEE0"/>
<path d="M84 60H100V66H97V95H105V101H82V95H87V66H84V60Z" fill="#F4EEE0"/>
<path d="M94.9689 53.4936C94.5835 44.1607 90.6359 35.3452 83.96 28.9091C77.2841 22.4729 68.4026 18.9202 59.1917 19.0014C49.9807 19.0825 41.1614 22.7911 34.5968 29.3439C28.0321 35.8966 24.2362 44.7804 24.0106 54.1186L30.7052 54.2849C30.8881 46.7081 33.9681 39.5002 39.2944 34.1835C44.6207 28.8668 51.7764 25.8578 59.2498 25.792C66.7233 25.7261 73.9294 28.6087 79.346 33.8307C84.7626 39.0528 87.9655 46.2054 88.2782 53.7778L94.9689 53.4936Z" fill="#F4EEE0"/>
</svg>
